<svg width="30" height="30" viewBox="0 0 30 30" fill="none" xmlns="http://www.w3.org/2000/svg">
<circle cx="15" cy="15" r="14.5" fill="white" stroke="#EDEDED"/>
<path d="M15.0003 23.3327C19.6027 23.3327 23.3337 19.6017 23.3337 14.9993C23.3337 10.397 19.6027 6.66602 15.0003 6.66602C10.398 6.66602 6.66699 10.397 6.66699 14.9993C6.66699 19.6017 10.398 23.3327 15.0003 23.3327Z" fill="#707375" fill-opacity="0.4"/>
<path d="M15 16.4577C15.3417 16.4577 15.625 16.1743 15.625 15.8327V11.666C15.625 11.3243 15.3417 11.041 15 11.041C14.6583 11.041 14.375 11.3243 14.375 11.666V15.8327C14.375 16.1743 14.6583 16.4577 15 16.4577Z" fill="white"/>
<path d="M15.767 18.0164C15.7253 17.9164 15.667 17.8247 15.592 17.7414C15.5087 17.6664 15.417 17.6081 15.317 17.5664C15.117 17.4831 14.8837 17.4831 14.6837 17.5664C14.5837 17.6081 14.492 17.6664 14.4087 17.7414C14.3337 17.8247 14.2753 17.9164 14.2337 18.0164C14.192 18.1164 14.167 18.2247 14.167 18.3331C14.167 18.4414 14.192 18.5497 14.2337 18.6497C14.2753 18.7581 14.3337 18.8414 14.4087 18.9247C14.492 18.9997 14.5837 19.0581 14.6837 19.0997C14.7837 19.1414 14.892 19.1664 15.0003 19.1664C15.1087 19.1664 15.217 19.1414 15.317 19.0997C15.417 19.0581 15.5087 18.9997 15.592 18.9247C15.667 18.8414 15.7253 18.7581 15.767 18.6497C15.8087 18.5497 15.8337 18.4414 15.8337 18.3331C15.8337 18.2247 15.8087 18.1164 15.767 18.0164Z" fill="white"/>
</svg>
