<svg width="30" height="30" viewBox="0 0 30 30" fill="none" xmlns="http://www.w3.org/2000/svg">
<circle cx="15" cy="15" r="14.5" fill="white" stroke="#EDEDED"/>
<path d="M20.4075 10.7701C19.6275 9.19513 18.12 8.03263 16.3725 7.65013C14.5425 7.24513 12.6675 7.68013 11.235 8.83513C9.79504 9.98263 8.97754 11.7001 8.97754 13.5376C8.97754 15.4801 10.14 17.5126 11.895 18.6901V19.3126C11.8875 19.5226 11.88 19.8451 12.135 20.1076C12.3975 20.3776 12.7875 20.4076 13.095 20.4076H16.9425C17.3475 20.4076 17.655 20.2951 17.865 20.0851C18.15 19.7926 18.1425 19.4176 18.135 19.2151V18.6901C20.46 17.1226 21.9225 13.8151 20.4075 10.7701Z" fill="#707375" fill-opacity="0.4"/>
<path d="M17.4454 22.5008C17.4004 22.5008 17.3479 22.4933 17.3029 22.4783C15.7954 22.0508 14.2129 22.0508 12.7054 22.4783C12.4279 22.5533 12.1354 22.3958 12.0604 22.1183C11.9779 21.8408 12.1429 21.5483 12.4204 21.4733C14.1154 20.9933 15.9004 20.9933 17.5954 21.4733C17.8729 21.5558 18.0379 21.8408 17.9554 22.1183C17.8804 22.3508 17.6704 22.5008 17.4454 22.5008Z" fill="#707375"/>
<path d="M15.0003 16.3872C14.9028 16.3872 14.8053 16.3647 14.7228 16.3122C14.4528 16.1547 14.3628 15.8097 14.5128 15.5472L15.1503 14.4372H14.5203C14.1453 14.4372 13.8378 14.2722 13.6728 13.9947C13.5078 13.7097 13.5228 13.3647 13.7103 13.0347L14.5128 11.6397C14.6703 11.3697 15.0153 11.2797 15.2778 11.4297C15.5478 11.5872 15.6378 11.9322 15.4878 12.1947L14.8503 13.3122H15.4803C15.8553 13.3122 16.1628 13.4772 16.3278 13.7547C16.4928 14.0397 16.4778 14.3847 16.2903 14.7147L15.4878 16.1097C15.3828 16.2897 15.1953 16.3872 15.0003 16.3872Z" fill="white"/>
</svg>
