<svg width="30" height="30" viewBox="0 0 30 30" fill="none" xmlns="http://www.w3.org/2000/svg">
<circle cx="15" cy="15" r="14.5" fill="white" stroke="#EDEDED"/>
<path d="M20.625 12C21.6605 12 22.5 11.1605 22.5 10.125C22.5 9.08947 21.6605 8.25 20.625 8.25C19.5895 8.25 18.75 9.08947 18.75 10.125C18.75 11.1605 19.5895 12 20.625 12Z" fill="#3C3C3C"/>
<path d="M20.625 12C21.6605 12 22.5 11.1605 22.5 10.125C22.5 9.08947 21.6605 8.25 20.625 8.25C19.5895 8.25 18.75 9.08947 18.75 10.125C18.75 11.1605 19.5895 12 20.625 12Z" fill="#E81C1C"/>
<path d="M21.54 12.9828C22.0125 12.8328 22.5 13.2003 22.5 13.7028V17.6328C22.5 20.2578 21 21.3828 18.75 21.3828H11.25C9 21.3828 7.5 20.2578 7.5 17.6328V12.3828C7.5 9.75781 9 8.63281 11.25 8.63281H16.9575C17.445 8.63281 17.775 9.08282 17.685 9.55532C17.595 9.99782 17.61 10.4703 17.745 10.9578C18.0225 11.9628 18.84 12.7653 19.845 13.0278C20.4375 13.1778 21.015 13.1478 21.54 12.9828Z" fill="#FFC894"/>
<path d="M15.0001 15.6526C14.3701 15.6526 13.7326 15.4576 13.2451 15.0601L10.8976 13.1851C10.6576 12.9901 10.6126 12.6376 10.8076 12.3976C11.0026 12.1576 11.3551 12.1126 11.5951 12.3076L13.9426 14.1826C14.5126 14.6401 15.4801 14.6401 16.0501 14.1826L16.9351 13.4776C17.1751 13.2826 17.5351 13.3201 17.7226 13.5676C17.9176 13.8076 17.8801 14.1676 17.6326 14.3551L16.7476 15.0601C16.2676 15.4576 15.6301 15.6526 15.0001 15.6526Z" fill="white"/>
</svg>
