<svg width="9" height="2" viewBox="0 0 9 2" fill="none" xmlns="http://www.w3.org/2000/svg">
<path d="M2 1C2 1.55228 1.55228 2 1 2C0.447715 2 0 1.55228 0 1C0 0.447715 0.447715 0 1 0C1.55228 0 2 0.447715 2 1Z" fill="#2E303D"/>
<path d="M5.33333 1C5.33333 1.55228 4.88562 2 4.33333 2C3.78105 2 3.33333 1.55228 3.33333 1C3.33333 0.447715 3.78105 0 4.33333 0C4.88562 0 5.33333 0.447715 5.33333 1Z" fill="#2E303D"/>
<path d="M8.66667 1C8.66667 1.55228 8.21895 2 7.66667 2C7.11438 2 6.66667 1.55228 6.66667 1C6.66667 0.447715 7.11438 0 7.66667 0C8.21895 0 8.66667 0.447715 8.66667 1Z" fill="#2E303D"/>
</svg>
