<svg width="30" height="30" viewBox="0 0 30 30" fill="none" xmlns="http://www.w3.org/2000/svg">
<circle cx="15" cy="15" r="14.5" fill="white" stroke="#EDEDED"/>
<path d="M18 12.7426V21.2627C18 22.3502 17.22 22.8076 16.2675 22.2826L13.32 20.6401C13.005 20.4676 12.495 20.4676 12.18 20.6401L9.2325 22.2826C8.28 22.8076 7.5 22.3502 7.5 21.2627V12.7426C7.5 11.4601 8.54999 10.4102 9.83249 10.4102H15.6675C16.95 10.4102 18 11.4601 18 12.7426Z" fill="#707375"/>
<path opacity="0.4" d="M22.5 9.83249V18.3525C22.5 19.44 21.72 19.8975 20.7675 19.3725L18 17.8275V12.7425C18 11.46 16.95 10.41 15.6675 10.41H12V9.83249C12 8.54999 13.05 7.5 14.3325 7.5H20.1675C21.45 7.5 22.5 8.54999 22.5 9.83249Z" fill="#707375"/>
<path d="M14.25 14.4375H13.3125V13.5C13.3125 13.1925 13.0575 12.9375 12.75 12.9375C12.4425 12.9375 12.1875 13.1925 12.1875 13.5V14.4375H11.25C10.9425 14.4375 10.6875 14.6925 10.6875 15C10.6875 15.3075 10.9425 15.5625 11.25 15.5625H12.1875V16.5C12.1875 16.8075 12.4425 17.0625 12.75 17.0625C13.0575 17.0625 13.3125 16.8075 13.3125 16.5V15.5625H14.25C14.5575 15.5625 14.8125 15.3075 14.8125 15C14.8125 14.6925 14.5575 14.4375 14.25 14.4375Z" fill="white"/>
</svg>
