<svg width="19" height="19" viewBox="0 0 19 19" fill="none" xmlns="http://www.w3.org/2000/svg">
<path fill-rule="evenodd" clip-rule="evenodd" d="M13.9453 12.9512L17.9629 16.9668C18.2363 17.2422 18.2363 17.6875 17.9648 17.9629C17.8262 18.0996 17.6484 18.168 17.4668 18.168C17.2852 18.168 17.1055 18.0996 16.9688 17.9629L12.9512 13.9453C11.6523 15.0215 9.98633 15.668 8.16797 15.668C4.02539 15.668 0.667969 12.3105 0.667969 8.16797C0.667969 4.02539 4.02539 0.667969 8.16797 0.667969C12.3105 0.667969 15.668 4.02539 15.668 8.16797C15.668 9.98633 15.0215 11.6523 13.9453 12.9512ZM8.16797 14.2617C8.99219 14.2617 9.78906 14.1016 10.5391 13.7832C11.2656 13.4766 11.916 13.0371 12.4766 12.4766C13.0371 11.916 13.4766 11.2637 13.7832 10.5391C14.1016 9.78906 14.2617 8.99219 14.2617 8.16797C14.2617 7.34375 14.1016 6.54688 13.7832 5.79688C13.4766 5.07227 13.0371 4.41992 12.4766 3.85938C11.916 3.29883 11.2637 2.85938 10.5391 2.55273C9.78906 2.23438 8.99219 2.07422 8.16797 2.07422C7.34375 2.07422 6.54688 2.23438 5.79688 2.55273C5.07227 2.85938 4.41992 3.29883 3.85938 3.85938C3.29883 4.41992 2.85938 5.07227 2.55273 5.79688C2.23438 6.54688 2.07422 7.34375 2.07422 8.16797C2.07422 8.99219 2.23438 9.78906 2.55273 10.5391C2.85938 11.2637 3.29883 11.916 3.85938 12.4766C4.41992 13.0371 5.07227 13.4766 5.79688 13.7832C6.54688 14.1016 7.34375 14.2617 8.16797 14.2617Z" fill="#707375"/>
</svg>
